<?xml version="1.0" encoding="UTF-8"?>
<svg xmlns="http://www.w3.org/2000/svg" xmlns:xlink="http://www.w3.org/1999/xlink" width="83px" height="83px" viewBox="0 0 83 83" version="1.1">
<g id="surface1">
<path style=" stroke:none;fill-rule:nonzero;fill:rgb(20%,11.764706%,40.784314%);fill-opacity:1;" d="M 68.523438 82.589844 L 14.476562 82.589844 C 10.09375 82.589844 6.527344 79.027344 6.527344 74.640625 L 6.527344 27.5 C 6.527344 26.21875 7.566406 25.179688 8.84375 25.179688 C 10.125 25.179688 11.164062 26.21875 11.164062 27.5 L 11.164062 74.644531 C 11.164062 76.46875 12.648438 77.953125 14.476562 77.953125 L 68.523438 77.953125 C 70.351562 77.953125 71.835938 76.46875 71.835938 74.644531 L 71.835938 38.761719 C 71.835938 37.480469 72.875 36.441406 74.152344 36.441406 C 75.433594 36.441406 76.472656 37.480469 76.472656 38.761719 L 76.472656 74.644531 C 76.472656 79.027344 72.90625 82.589844 68.523438 82.589844 Z M 68.523438 82.589844 "/>
<path style=" stroke:none;fill-rule:nonzero;fill:rgb(78.823529%,76.862745%,88.235294%);fill-opacity:1;" d="M 79.03125 27.5 L 53.445312 27.5 C 53.007812 27.5 52.585938 27.324219 52.277344 27.015625 L 42.667969 17.40625 C 42.023438 16.761719 40.976562 16.761719 40.332031 17.40625 L 30.722656 27.015625 C 30.414062 27.324219 29.992188 27.5 29.554688 27.5 L 3.96875 27.5 C 2.667969 27.5 1.878906 26.0625 2.578125 24.964844 L 16.242188 3.492188 C 16.542969 3.015625 17.070312 2.726562 17.632812 2.726562 L 65.367188 2.726562 C 65.929688 2.726562 66.457031 3.015625 66.757812 3.492188 L 80.421875 24.964844 C 81.121094 26.0625 80.332031 27.5 79.03125 27.5 Z M 79.03125 27.5 "/>
<path style=" stroke:none;fill-rule:nonzero;fill:rgb(20%,11.764706%,40.784314%);fill-opacity:1;" d="M 79.03125 29.820312 L 53.445312 29.820312 C 52.382812 29.820312 51.386719 29.40625 50.636719 28.65625 L 41.5 19.519531 L 32.363281 28.65625 C 31.613281 29.40625 30.617188 29.820312 29.554688 29.820312 L 3.96875 29.820312 C 2.519531 29.820312 1.1875 29.03125 0.488281 27.761719 C -0.207031 26.488281 -0.15625 24.941406 0.621094 23.71875 L 14.285156 2.246094 C 15.015625 1.097656 16.269531 0.410156 17.632812 0.410156 L 65.367188 0.410156 C 66.730469 0.410156 67.980469 1.09375 68.714844 2.246094 L 82.378906 23.71875 C 83.15625 24.941406 83.207031 26.488281 82.511719 27.757812 C 81.8125 29.03125 80.480469 29.820312 79.03125 29.820312 Z M 53.722656 25.179688 L 77.8125 25.179688 L 65 5.046875 L 18 5.046875 L 5.1875 25.179688 L 29.28125 25.179688 L 38.695312 15.765625 C 39.445312 15.015625 40.441406 14.605469 41.5 14.605469 C 42.558594 14.605469 43.554688 15.015625 44.304688 15.765625 Z M 53.722656 25.179688 "/>
<path style=" stroke:none;fill-rule:nonzero;fill:rgb(78.823529%,76.862745%,88.235294%);fill-opacity:1;" d="M 61.65625 45.515625 L 52.761719 45.515625 C 51.453125 45.515625 50.394531 44.457031 50.394531 43.152344 L 50.394531 38.871094 C 50.394531 37.566406 51.453125 36.507812 52.761719 36.507812 L 61.65625 36.507812 C 62.960938 36.507812 64.019531 37.566406 64.019531 38.871094 L 64.019531 43.152344 C 64.019531 44.457031 62.960938 45.515625 61.65625 45.515625 Z M 61.65625 45.515625 "/>
<path style=" stroke:none;fill-rule:nonzero;fill:rgb(20%,11.764706%,40.784314%);fill-opacity:1;" d="M 61.65625 47.835938 L 52.761719 47.835938 C 50.179688 47.835938 48.078125 45.734375 48.078125 43.152344 L 48.078125 38.871094 C 48.078125 36.289062 50.179688 34.1875 52.761719 34.1875 L 61.65625 34.1875 C 64.238281 34.1875 66.339844 36.289062 66.339844 38.871094 L 66.339844 43.152344 C 66.339844 45.734375 64.238281 47.835938 61.65625 47.835938 Z M 52.761719 38.828125 C 52.734375 38.828125 52.714844 38.847656 52.714844 38.871094 L 52.714844 43.152344 C 52.714844 43.175781 52.734375 43.199219 52.761719 43.199219 L 61.65625 43.199219 C 61.679688 43.199219 61.703125 43.175781 61.703125 43.152344 L 61.703125 38.871094 C 61.703125 38.847656 61.679688 38.828125 61.65625 38.828125 Z M 52.761719 38.828125 "/>
<path style=" stroke:none;fill-rule:nonzero;fill:rgb(78.823529%,76.862745%,88.235294%);fill-opacity:1;" d="M 30.238281 45.515625 L 21.34375 45.515625 C 20.039062 45.515625 18.980469 44.457031 18.980469 43.152344 L 18.980469 38.871094 C 18.980469 37.566406 20.039062 36.507812 21.34375 36.507812 L 30.238281 36.507812 C 31.546875 36.507812 32.605469 37.566406 32.605469 38.871094 L 32.605469 43.152344 C 32.605469 44.457031 31.546875 45.515625 30.238281 45.515625 Z M 30.238281 45.515625 "/>
<path style=" stroke:none;fill-rule:nonzero;fill:rgb(20%,11.764706%,40.784314%);fill-opacity:1;" d="M 30.238281 47.835938 L 21.34375 47.835938 C 18.761719 47.835938 16.660156 45.734375 16.660156 43.152344 L 16.660156 38.871094 C 16.660156 36.289062 18.761719 34.1875 21.34375 34.1875 L 30.238281 34.1875 C 32.820312 34.1875 34.921875 36.289062 34.921875 38.871094 L 34.921875 43.152344 C 34.921875 45.734375 32.820312 47.835938 30.238281 47.835938 Z M 21.34375 38.828125 C 21.320312 38.828125 21.296875 38.847656 21.296875 38.871094 L 21.296875 43.152344 C 21.296875 43.175781 21.320312 43.199219 21.34375 43.199219 L 30.238281 43.199219 C 30.265625 43.199219 30.285156 43.175781 30.285156 43.152344 L 30.285156 38.871094 C 30.285156 38.847656 30.265625 38.828125 30.238281 38.828125 Z M 21.34375 38.828125 "/>
<path style=" stroke:none;fill-rule:nonzero;fill:rgb(78.823529%,76.862745%,88.235294%);fill-opacity:1;" d="M 61.65625 62.578125 L 52.761719 62.578125 C 51.453125 62.578125 50.394531 61.519531 50.394531 60.214844 L 50.394531 55.933594 C 50.394531 54.628906 51.453125 53.570312 52.761719 53.570312 L 61.65625 53.570312 C 62.960938 53.570312 64.019531 54.628906 64.019531 55.933594 L 64.019531 60.214844 C 64.019531 61.519531 62.960938 62.578125 61.65625 62.578125 Z M 61.65625 62.578125 "/>
<path style=" stroke:none;fill-rule:nonzero;fill:rgb(20%,11.764706%,40.784314%);fill-opacity:1;" d="M 61.65625 64.898438 L 52.761719 64.898438 C 50.179688 64.898438 48.078125 62.796875 48.078125 60.214844 L 48.078125 55.933594 C 48.078125 53.351562 50.179688 51.25 52.761719 51.25 L 61.65625 51.25 C 64.238281 51.25 66.339844 53.351562 66.339844 55.933594 L 66.339844 60.214844 C 66.339844 62.796875 64.238281 64.898438 61.65625 64.898438 Z M 52.761719 55.886719 C 52.734375 55.886719 52.714844 55.910156 52.714844 55.933594 L 52.714844 60.214844 C 52.714844 60.238281 52.734375 60.261719 52.761719 60.261719 L 61.65625 60.261719 C 61.679688 60.261719 61.703125 60.238281 61.703125 60.214844 L 61.703125 55.933594 C 61.703125 55.910156 61.679688 55.886719 61.65625 55.886719 Z M 52.761719 55.886719 "/>
<path style=" stroke:none;fill-rule:nonzero;fill:rgb(78.823529%,76.862745%,88.235294%);fill-opacity:1;" d="M 30.238281 62.578125 L 21.34375 62.578125 C 20.039062 62.578125 18.980469 61.519531 18.980469 60.214844 L 18.980469 55.933594 C 18.980469 54.628906 20.039062 53.570312 21.34375 53.570312 L 30.238281 53.570312 C 31.546875 53.570312 32.605469 54.628906 32.605469 55.933594 L 32.605469 60.214844 C 32.605469 61.519531 31.546875 62.578125 30.238281 62.578125 Z M 30.238281 62.578125 "/>
<path style=" stroke:none;fill-rule:nonzero;fill:rgb(20%,11.764706%,40.784314%);fill-opacity:1;" d="M 30.238281 64.898438 L 21.34375 64.898438 C 18.761719 64.898438 16.660156 62.796875 16.660156 60.214844 L 16.660156 55.933594 C 16.660156 53.351562 18.761719 51.25 21.34375 51.25 L 30.238281 51.25 C 32.820312 51.25 34.921875 53.351562 34.921875 55.933594 L 34.921875 60.214844 C 34.921875 62.796875 32.820312 64.898438 30.238281 64.898438 Z M 21.34375 55.886719 C 21.320312 55.886719 21.296875 55.910156 21.296875 55.933594 L 21.296875 60.214844 C 21.296875 60.238281 21.320312 60.261719 21.34375 60.261719 L 30.238281 60.261719 C 30.265625 60.261719 30.285156 60.238281 30.285156 60.214844 L 30.285156 55.933594 C 30.285156 55.910156 30.265625 55.886719 30.238281 55.886719 Z M 21.34375 55.886719 "/>
<path style=" stroke:none;fill-rule:nonzero;fill:rgb(20%,11.764706%,40.784314%);fill-opacity:1;" d="M 35.871094 81.464844 C 34.589844 81.464844 33.550781 80.425781 33.550781 79.148438 L 33.550781 72.710938 C 33.550781 68.328125 37.117188 64.765625 41.5 64.765625 C 45.882812 64.765625 49.449219 68.328125 49.449219 72.710938 L 49.449219 73.515625 C 49.449219 74.796875 48.410156 75.835938 47.128906 75.835938 C 45.851562 75.835938 44.8125 74.796875 44.8125 73.515625 L 44.8125 72.710938 C 44.8125 70.886719 43.328125 69.402344 41.5 69.402344 C 39.675781 69.402344 38.1875 70.886719 38.1875 72.710938 L 38.1875 79.148438 C 38.1875 80.425781 37.152344 81.464844 35.871094 81.464844 Z M 35.871094 81.464844 "/>
</g>
</svg>
