<?xml version="1.0" encoding="UTF-8"?>
<svg xmlns="http://www.w3.org/2000/svg" xmlns:xlink="http://www.w3.org/1999/xlink" width="80px" height="80px" viewBox="0 0 80 80" version="1.1">
<g id="surface1">
<path style=" stroke:none;fill-rule:nonzero;fill:rgb(99.215686%,99.607843%,100%);fill-opacity:1;" d="M 69.957031 2.5 L 19.957031 2.5 C 14.433594 2.5 9.957031 6.976562 9.957031 12.5 L 9.957031 67.5 L 62.457031 67.5 L 62.457031 10.625 Z M 69.957031 2.5 "/>
<path style=" stroke:none;fill-rule:nonzero;fill:rgb(1.568627%,33.333333%,74.901961%);fill-opacity:1;" d="M 74.957031 15 L 62.457031 15 L 62.457031 10.230469 C 62.398438 6.664062 64.8125 3.535156 68.277344 2.683594 C 70.503906 2.175781 72.839844 2.710938 74.625 4.132812 C 76.414062 5.558594 77.453125 7.714844 77.457031 10 L 77.457031 12.5 C 77.457031 13.878906 76.339844 15 74.957031 15 Z M 74.957031 15 "/>
<path style=" stroke:none;fill-rule:nonzero;fill:rgb(0%,27.843137%,52.941176%);fill-opacity:1;" d="M 71.882812 2.742188 C 69.597656 2.140625 67.160156 2.65625 65.3125 4.132812 C 63.460938 5.605469 62.421875 7.867188 62.5 10.230469 L 62.5 15 L 66.25 15 L 66.25 10.230469 C 66.199219 6.742188 68.515625 3.664062 71.882812 2.742188 Z M 71.882812 2.742188 "/>
<path style=" stroke:none;fill-rule:nonzero;fill:rgb(1.568627%,33.333333%,74.901961%);fill-opacity:1;" d="M 54.957031 77.5 L 12.457031 77.5 C 6.933594 77.5 2.457031 73.023438 2.457031 67.5 C 2.457031 66.121094 3.578125 65 4.957031 65 L 44.957031 65 C 46.339844 65 47.457031 66.121094 47.457031 67.5 L 47.457031 69.375 Z M 54.957031 77.5 "/>
<path style=" stroke:none;fill-rule:nonzero;fill:rgb(0%,27.843137%,52.941176%);fill-opacity:1;" d="M 16.25 73.75 C 11.214844 73.746094 6.964844 69.996094 6.335938 65 L 5 65 C 3.621094 65 2.5 66.121094 2.5 67.5 C 2.5 73.023438 6.976562 77.5 12.5 77.5 L 55 77.5 L 51.539062 73.75 Z M 16.25 73.75 "/>
<path style=" stroke:none;fill-rule:nonzero;fill:rgb(99.215686%,99.607843%,100%);fill-opacity:1;" d="M 62.457031 70 C 62.453125 72.285156 61.414062 74.441406 59.625 75.867188 C 57.839844 77.289062 55.503906 77.824219 53.277344 77.316406 C 49.8125 76.464844 47.398438 73.335938 47.457031 69.769531 L 47.457031 65 L 62.457031 65 Z M 62.457031 70 "/>
<path style=" stroke:none;fill-rule:nonzero;fill:rgb(87.45098%,91.764706%,93.72549%);fill-opacity:1;" d="M 13.75 15 L 13.75 25 C 13.75 25.691406 14.308594 26.25 15 26.25 L 21.25 26.25 L 21.25 23.75 L 16.25 23.75 L 16.25 21.25 L 21.25 21.25 L 21.25 18.75 L 16.25 18.75 L 16.25 16.25 L 21.25 16.25 L 21.25 13.75 L 15 13.75 C 14.308594 13.75 13.75 14.308594 13.75 15 Z M 13.75 15 "/>
<path style=" stroke:none;fill-rule:nonzero;fill:rgb(87.45098%,91.764706%,93.72549%);fill-opacity:1;" d="M 28.75 16.984375 L 27.5 18.234375 L 26.25 16.984375 L 26.25 13.75 L 23.75 13.75 L 23.75 17.5 C 23.75 17.832031 23.882812 18.148438 24.117188 18.382812 L 25.734375 20 L 24.117188 21.617188 C 23.882812 21.851562 23.75 22.167969 23.75 22.5 L 23.75 26.25 L 26.25 26.25 L 26.25 23.015625 L 27.5 21.765625 L 28.75 23.015625 L 28.75 26.25 L 31.25 26.25 L 31.25 22.5 C 31.25 22.167969 31.117188 21.851562 30.882812 21.617188 L 29.265625 20 L 30.882812 18.382812 C 31.117188 18.148438 31.25 17.832031 31.25 17.5 L 31.25 13.75 L 28.75 13.75 Z M 28.75 16.984375 "/>
<path style=" stroke:none;fill-rule:nonzero;fill:rgb(87.45098%,91.764706%,93.72549%);fill-opacity:1;" d="M 37.5 13.75 C 35.429688 13.75 33.75 15.429688 33.75 17.5 L 33.75 26.25 L 36.25 26.25 L 36.25 22.5 L 38.75 22.5 L 38.75 26.25 L 41.25 26.25 L 41.25 17.5 C 41.25 15.429688 39.570312 13.75 37.5 13.75 Z M 36.25 20 L 36.25 17.5 C 36.25 16.808594 36.808594 16.25 37.5 16.25 C 38.191406 16.25 38.75 16.808594 38.75 17.5 L 38.75 20 Z M 36.25 20 "/>
<path style=" stroke:none;fill-rule:nonzero;fill:rgb(87.45098%,91.764706%,93.72549%);fill-opacity:1;" d="M 52.5 13.75 C 51.574219 13.753906 50.683594 14.101562 50 14.726562 C 48.90625 13.726562 47.324219 13.46875 45.96875 14.070312 C 44.613281 14.671875 43.742188 16.019531 43.75 17.5 L 43.75 26.25 L 46.25 26.25 L 46.25 17.5 C 46.25 16.808594 46.808594 16.25 47.5 16.25 C 48.191406 16.25 48.75 16.808594 48.75 17.5 L 48.75 22.5 L 51.25 22.5 L 51.25 17.5 C 51.25 16.808594 51.808594 16.25 52.5 16.25 C 53.191406 16.25 53.75 16.808594 53.75 17.5 L 53.75 26.25 L 56.25 26.25 L 56.25 17.5 C 56.25 15.429688 54.570312 13.75 52.5 13.75 Z M 52.5 13.75 "/>
<path style=" stroke:none;fill-rule:nonzero;fill:rgb(1.568627%,33.333333%,74.901961%);fill-opacity:1;" d="M 15 13.75 L 15 23.75 C 15 24.441406 15.558594 25 16.25 25 L 22.5 25 L 22.5 22.5 L 17.5 22.5 L 17.5 20 L 22.5 20 L 22.5 17.5 L 17.5 17.5 L 17.5 15 L 22.5 15 L 22.5 12.5 L 16.25 12.5 C 15.558594 12.5 15 13.058594 15 13.75 Z M 15 13.75 "/>
<path style=" stroke:none;fill-rule:nonzero;fill:rgb(1.568627%,33.333333%,74.901961%);fill-opacity:1;" d="M 30 15.734375 L 28.75 16.984375 L 27.5 15.734375 L 27.5 12.5 L 25 12.5 L 25 16.25 C 25 16.582031 25.132812 16.898438 25.367188 17.132812 L 26.984375 18.75 L 25.367188 20.367188 C 25.132812 20.601562 25 20.917969 25 21.25 L 25 25 L 27.5 25 L 27.5 21.765625 L 28.75 20.515625 L 30 21.765625 L 30 25 L 32.5 25 L 32.5 21.25 C 32.5 20.917969 32.367188 20.601562 32.132812 20.367188 L 30.515625 18.75 L 32.132812 17.132812 C 32.367188 16.898438 32.5 16.582031 32.5 16.25 L 32.5 12.5 L 30 12.5 Z M 30 15.734375 "/>
<path style=" stroke:none;fill-rule:nonzero;fill:rgb(1.568627%,33.333333%,74.901961%);fill-opacity:1;" d="M 38.75 12.5 C 36.679688 12.5 35 14.179688 35 16.25 L 35 25 L 37.5 25 L 37.5 21.25 L 40 21.25 L 40 25 L 42.5 25 L 42.5 16.25 C 42.5 14.179688 40.820312 12.5 38.75 12.5 Z M 37.5 18.75 L 37.5 16.25 C 37.5 15.558594 38.058594 15 38.75 15 C 39.441406 15 40 15.558594 40 16.25 L 40 18.75 Z M 37.5 18.75 "/>
<path style=" stroke:none;fill-rule:nonzero;fill:rgb(1.568627%,33.333333%,74.901961%);fill-opacity:1;" d="M 53.75 12.5 C 52.824219 12.503906 51.933594 12.851562 51.25 13.476562 C 50.15625 12.476562 48.574219 12.21875 47.21875 12.820312 C 45.863281 13.421875 44.992188 14.769531 45 16.25 L 45 25 L 47.5 25 L 47.5 16.25 C 47.5 15.558594 48.058594 15 48.75 15 C 49.441406 15 50 15.558594 50 16.25 L 50 21.25 L 52.5 21.25 L 52.5 16.25 C 52.5 15.558594 53.058594 15 53.75 15 C 54.441406 15 55 15.558594 55 16.25 L 55 25 L 57.5 25 L 57.5 16.25 C 57.5 14.179688 55.820312 12.5 53.75 12.5 Z M 53.75 12.5 "/>
<path style=" stroke:none;fill-rule:nonzero;fill:rgb(99.607843%,73.72549%,0%);fill-opacity:1;" d="M 22.5 38.75 L 16.25 38.75 C 15.558594 38.75 15 38.191406 15 37.5 L 15 32.5 C 15 31.808594 15.558594 31.25 16.25 31.25 L 22.5 31.25 C 23.191406 31.25 23.75 31.808594 23.75 32.5 L 23.75 37.5 C 23.75 38.191406 23.191406 38.75 22.5 38.75 Z M 17.5 36.25 L 21.25 36.25 L 21.25 33.75 L 17.5 33.75 Z M 17.5 36.25 "/>
<path style=" stroke:none;fill-rule:nonzero;fill:rgb(99.607843%,73.72549%,0%);fill-opacity:1;" d="M 22.5 50 L 16.25 50 C 15.558594 50 15 49.441406 15 48.75 L 15 43.75 C 15 43.058594 15.558594 42.5 16.25 42.5 L 22.5 42.5 C 23.191406 42.5 23.75 43.058594 23.75 43.75 L 23.75 48.75 C 23.75 49.441406 23.191406 50 22.5 50 Z M 17.5 47.5 L 21.25 47.5 L 21.25 45 L 17.5 45 Z M 17.5 47.5 "/>
<path style=" stroke:none;fill-rule:nonzero;fill:rgb(99.607843%,73.72549%,0%);fill-opacity:1;" d="M 22.5 61.25 L 16.25 61.25 C 15.558594 61.25 15 60.691406 15 60 L 15 55 C 15 54.308594 15.558594 53.75 16.25 53.75 L 22.5 53.75 C 23.191406 53.75 23.75 54.308594 23.75 55 L 23.75 60 C 23.75 60.691406 23.191406 61.25 22.5 61.25 Z M 17.5 58.75 L 21.25 58.75 L 21.25 56.25 L 17.5 56.25 Z M 17.5 58.75 "/>
<path style=" stroke:none;fill-rule:nonzero;fill:rgb(1.568627%,33.333333%,74.901961%);fill-opacity:1;" d="M 26.25 33.75 L 40 33.75 L 40 36.25 L 26.25 36.25 Z M 26.25 33.75 "/>
<path style=" stroke:none;fill-rule:nonzero;fill:rgb(1.568627%,33.333333%,74.901961%);fill-opacity:1;" d="M 26.25 45 L 41.25 45 L 41.25 47.5 L 26.25 47.5 Z M 26.25 45 "/>
<path style=" stroke:none;fill-rule:nonzero;fill:rgb(1.568627%,33.333333%,74.901961%);fill-opacity:1;" d="M 26.25 56.25 L 40 56.25 L 40 58.75 L 26.25 58.75 Z M 26.25 56.25 "/>
<path style=" stroke:none;fill-rule:nonzero;fill:rgb(1.568627%,33.333333%,74.901961%);fill-opacity:1;" d="M 47.5 33.75 L 50 33.75 L 50 36.25 L 47.5 36.25 Z M 47.5 33.75 "/>
<path style=" stroke:none;fill-rule:nonzero;fill:rgb(1.568627%,33.333333%,74.901961%);fill-opacity:1;" d="M 42.5 33.75 L 45 33.75 L 45 36.25 L 42.5 36.25 Z M 42.5 33.75 "/>
<path style=" stroke:none;fill-rule:nonzero;fill:rgb(87.45098%,91.764706%,93.72549%);fill-opacity:1;" d="M 60.246094 32.574219 L 45.5 47.320312 L 44.578125 51.929688 L 43.976562 54.375 L 46.421875 53.773438 L 51.03125 52.851562 L 62.5 41.378906 L 62.5 30.320312 Z M 60.246094 32.574219 "/>
<path style=" stroke:none;fill-rule:nonzero;fill:rgb(96.862745%,30.588235%,4.705882%);fill-opacity:1;" d="M 67.578125 33.761719 L 62.046875 28.230469 L 63.890625 26.390625 C 64.378906 25.898438 65.042969 25.625 65.734375 25.625 C 66.425781 25.625 67.085938 25.898438 67.578125 26.390625 L 69.421875 28.230469 C 70.4375 29.25 70.4375 30.898438 69.421875 31.917969 Z M 67.578125 33.761719 "/>
<path style=" stroke:none;fill-rule:nonzero;fill:rgb(80%,14.901961%,0%);fill-opacity:1;" d="M 68.5 27.308594 L 67.578125 26.390625 C 67.089844 25.898438 66.425781 25.625 65.734375 25.625 C 65.042969 25.625 64.382812 25.898438 63.890625 26.390625 L 62.046875 28.230469 L 62.972656 29.152344 L 64.8125 27.308594 C 65.832031 26.292969 67.480469 26.292969 68.5 27.308594 Z M 68.5 27.308594 "/>
<path style=" stroke:none;fill-rule:nonzero;fill:rgb(96.862745%,30.588235%,4.705882%);fill-opacity:1;" d="M 45.457031 44.820312 L 60.203125 30.074219 L 65.734375 35.605469 L 50.988281 50.351562 Z M 45.457031 44.820312 "/>
<path style=" stroke:none;fill-rule:nonzero;fill:rgb(99.607843%,73.72549%,0%);fill-opacity:1;" d="M 47.300781 46.664062 L 62.046875 31.917969 L 63.890625 33.761719 L 49.144531 48.507812 Z M 47.300781 46.664062 "/>
<path style=" stroke:none;fill-rule:nonzero;fill:rgb(96.862745%,30.588235%,4.705882%);fill-opacity:1;" d="M 45.457031 44.820312 L 60.203125 30.074219 L 62.046875 31.917969 L 47.300781 46.664062 Z M 45.457031 44.820312 "/>
<path style=" stroke:none;fill-rule:nonzero;fill:rgb(87.45098%,91.764706%,93.72549%);fill-opacity:1;" d="M 60.203125 30.074219 L 62.96875 27.308594 L 68.496094 32.839844 L 65.734375 35.605469 Z M 60.203125 30.074219 "/>
<path style=" stroke:none;fill-rule:nonzero;fill:rgb(76.470588%,83.921569%,86.666667%);fill-opacity:1;" d="M 63.890625 31.917969 C 62.871094 30.902344 62.871094 29.25 63.890625 28.230469 L 62.96875 27.308594 L 60.203125 30.074219 L 65.734375 35.605469 L 66.65625 34.683594 Z M 63.890625 31.917969 "/>
<path style=" stroke:none;fill-rule:nonzero;fill:rgb(96.862745%,83.921569%,58.039216%);fill-opacity:1;" d="M 46.378906 51.273438 L 44.535156 49.429688 L 45.457031 44.820312 L 50.988281 50.351562 Z M 46.378906 51.273438 "/>
<path style=" stroke:none;fill-rule:nonzero;fill:rgb(96.862745%,30.588235%,4.705882%);fill-opacity:1;" d="M 44.535156 49.429688 L 43.933594 51.875 L 46.378906 51.273438 Z M 44.535156 49.429688 "/>
</g>
</svg>
