<?xml version="1.0" encoding="UTF-8"?>
<svg xmlns="http://www.w3.org/2000/svg" xmlns:xlink="http://www.w3.org/1999/xlink" width="80px" height="80px" viewBox="0 0 80 80" version="1.1">
<g id="surface1">
<path style=" stroke:none;fill-rule:nonzero;fill:rgb(0%,70.196078%,89.019608%);fill-opacity:1;" d="M 69.28125 29.484375 C 68.867188 28.789062 67.875 28.226562 67.070312 28.226562 L 13.101562 28.226562 C 12.296875 28.226562 11.304688 28.789062 10.890625 29.484375 L 6.671875 36.570312 C 6.257812 37.265625 6.578125 37.828125 7.382812 37.828125 L 72.78125 37.828125 C 73.585938 37.828125 73.90625 37.265625 73.492188 36.570312 Z M 69.28125 29.484375 "/>
<path style=" stroke:none;fill-rule:nonzero;fill:rgb(0%,0%,0%);fill-opacity:1;" d="M 70.382812 31.34375 L 45.007812 31.34375 L 45.007812 33.578125 L 71.71875 33.578125 Z M 8.453125 33.578125 L 34.867188 33.578125 L 34.867188 31.34375 L 9.789062 31.34375 Z M 8.453125 33.578125 "/>
<path style=" stroke:none;fill-rule:nonzero;fill:rgb(81.960784%,82.745098%,82.745098%);fill-opacity:1;" d="M 47.539062 37.46875 L 39.9375 25.265625 L 32.328125 37.46875 L 6.804688 37.46875 L 6.804688 67 L 73.0625 67 L 73.0625 37.46875 Z M 47.539062 37.46875 "/>
<path style=" stroke:none;fill-rule:nonzero;fill:rgb(0%,0%,0%);fill-opacity:1;" d="M 49.914062 39.054688 C 49.359375 39.054688 48.671875 38.671875 48.375 38.203125 L 47.914062 37.46875 L 47.53125 37.46875 L 40.445312 26.09375 C 40.109375 25.9375 39.75 25.9375 39.40625 26.09375 L 32.320312 37.46875 L 31.953125 37.46875 L 31.492188 38.203125 C 31.195312 38.671875 30.507812 39.054688 29.953125 39.054688 L 6.804688 39.054688 L 6.804688 42.976562 L 31.195312 42.976562 C 31.75 42.976562 32.429688 42.585938 32.703125 42.109375 L 38.65625 32.992188 C 39.351562 31.804688 40.5 31.804688 41.195312 32.992188 L 47.148438 42.109375 C 47.429688 42.585938 48.101562 42.976562 48.65625 42.976562 L 73.046875 42.976562 L 73.046875 39.054688 Z M 49.914062 39.054688 "/>
<path style=" stroke:none;fill-rule:nonzero;fill:rgb(64.313725%,66.27451%,67.843137%);fill-opacity:1;" d="M 66.625 43.6875 L 73.0625 43.6875 L 73.0625 46.78125 L 66.625 46.78125 Z M 47.328125 50.09375 L 53.765625 50.09375 L 53.765625 53.1875 L 47.328125 53.1875 Z M 58.976562 61.085938 L 65.414062 61.085938 L 65.414062 64.179688 L 58.976562 64.179688 Z M 25.578125 61.914062 L 32.015625 61.914062 L 32.015625 65.007812 L 25.578125 65.007812 Z M 6.804688 46.65625 L 13.242188 46.65625 L 13.242188 49.75 L 6.804688 49.75 Z M 22.359375 40.25 L 28.796875 40.25 L 28.796875 43.34375 L 22.359375 43.34375 Z M 22.359375 40.25 "/>
<path style=" stroke:none;fill-rule:nonzero;fill:rgb(20%,24.313725%,28.235294%);fill-opacity:1;" d="M 34.40625 51.796875 L 45.460938 51.796875 L 45.460938 67 L 34.40625 67 Z M 34.40625 51.796875 "/>
<path style=" stroke:none;fill-rule:nonzero;fill:rgb(100%,100%,100%);fill-opacity:1;" d="M 36.515625 55.3125 L 38.75 55.3125 L 38.75 59.523438 L 36.515625 59.523438 Z M 41.117188 55.3125 L 43.351562 55.3125 L 43.351562 59.523438 L 41.117188 59.523438 Z M 22.851562 49.234375 L 29.351562 49.234375 L 29.351562 58.171875 L 22.851562 58.171875 Z M 22.851562 49.234375 "/>
<path style=" stroke:none;fill-rule:nonzero;fill:rgb(0%,0%,0%);fill-opacity:1;" d="M 22.851562 49.234375 L 29.351562 49.234375 L 29.351562 51.203125 L 22.851562 51.203125 Z M 22.851562 49.234375 "/>
<path style=" stroke:none;fill-rule:nonzero;fill:rgb(66.27451%,20.392157%,22.352941%);fill-opacity:1;" d="M 22.851562 52.585938 L 29.351562 52.585938 L 29.351562 54.820312 L 22.851562 54.820312 Z M 22.851562 52.585938 "/>
<path style=" stroke:none;fill-rule:nonzero;fill:rgb(100%,34.901961%,34.901961%);fill-opacity:1;" d="M 23.96875 57.054688 L 28.234375 57.054688 L 28.234375 50.351562 L 23.96875 50.351562 Z M 29.351562 59.289062 L 22.851562 59.289062 C 22.234375 59.289062 21.734375 58.789062 21.734375 58.171875 L 21.734375 49.234375 C 21.734375 48.617188 22.234375 48.117188 22.851562 48.117188 L 29.351562 48.117188 C 29.96875 48.117188 30.46875 48.617188 30.46875 49.234375 L 30.46875 58.171875 C 30.46875 58.789062 29.96875 59.289062 29.351562 59.289062 Z M 29.351562 59.289062 "/>
<path style=" stroke:none;fill-rule:nonzero;fill:rgb(100%,100%,100%);fill-opacity:1;" d="M 10.242188 49.234375 L 16.742188 49.234375 L 16.742188 58.171875 L 10.242188 58.171875 Z M 10.242188 49.234375 "/>
<path style=" stroke:none;fill-rule:nonzero;fill:rgb(0%,0%,0%);fill-opacity:1;" d="M 10.242188 49.234375 L 16.742188 49.234375 L 16.742188 51.203125 L 10.242188 51.203125 Z M 10.242188 49.234375 "/>
<path style=" stroke:none;fill-rule:nonzero;fill:rgb(66.27451%,20.392157%,22.352941%);fill-opacity:1;" d="M 10.242188 52.585938 L 16.742188 52.585938 L 16.742188 54.820312 L 10.242188 54.820312 Z M 10.242188 52.585938 "/>
<path style=" stroke:none;fill-rule:nonzero;fill:rgb(100%,34.901961%,34.901961%);fill-opacity:1;" d="M 11.359375 57.054688 L 15.625 57.054688 L 15.625 50.351562 L 11.359375 50.351562 Z M 16.742188 59.289062 L 10.242188 59.289062 C 9.625 59.289062 9.125 58.789062 9.125 58.171875 L 9.125 49.234375 C 9.125 48.617188 9.625 48.117188 10.242188 48.117188 L 16.742188 48.117188 C 17.359375 48.117188 17.859375 48.617188 17.859375 49.234375 L 17.859375 58.171875 C 17.859375 58.789062 17.359375 59.289062 16.742188 59.289062 Z M 16.742188 59.289062 "/>
<path style=" stroke:none;fill-rule:nonzero;fill:rgb(100%,100%,100%);fill-opacity:1;" d="M 50.523438 49.234375 L 57.023438 49.234375 L 57.023438 58.171875 L 50.523438 58.171875 Z M 50.523438 49.234375 "/>
<path style=" stroke:none;fill-rule:nonzero;fill:rgb(0%,0%,0%);fill-opacity:1;" d="M 50.523438 49.234375 L 57.023438 49.234375 L 57.023438 51.203125 L 50.523438 51.203125 Z M 50.523438 49.234375 "/>
<path style=" stroke:none;fill-rule:nonzero;fill:rgb(66.27451%,20.392157%,22.352941%);fill-opacity:1;" d="M 50.523438 52.585938 L 57.023438 52.585938 L 57.023438 54.820312 L 50.523438 54.820312 Z M 50.523438 52.585938 "/>
<path style=" stroke:none;fill-rule:nonzero;fill:rgb(100%,34.901961%,34.901961%);fill-opacity:1;" d="M 51.640625 57.054688 L 55.90625 57.054688 L 55.90625 50.351562 L 51.640625 50.351562 Z M 57.015625 59.289062 L 50.515625 59.289062 C 49.898438 59.289062 49.398438 58.789062 49.398438 58.171875 L 49.398438 49.234375 C 49.398438 48.617188 49.898438 48.117188 50.515625 48.117188 L 57.015625 48.117188 C 57.632812 48.117188 58.132812 48.617188 58.132812 49.234375 L 58.132812 58.171875 C 58.132812 58.789062 57.632812 59.289062 57.015625 59.289062 Z M 57.015625 59.289062 "/>
<path style=" stroke:none;fill-rule:nonzero;fill:rgb(100%,100%,100%);fill-opacity:1;" d="M 63.125 49.234375 L 69.625 49.234375 L 69.625 58.171875 L 63.125 58.171875 Z M 63.125 49.234375 "/>
<path style=" stroke:none;fill-rule:nonzero;fill:rgb(0%,0%,0%);fill-opacity:1;" d="M 63.125 49.234375 L 69.625 49.234375 L 69.625 51.203125 L 63.125 51.203125 Z M 63.125 49.234375 "/>
<path style=" stroke:none;fill-rule:nonzero;fill:rgb(66.27451%,20.392157%,22.352941%);fill-opacity:1;" d="M 63.125 52.585938 L 69.625 52.585938 L 69.625 54.820312 L 63.125 54.820312 Z M 63.125 52.585938 "/>
<path style=" stroke:none;fill-rule:nonzero;fill:rgb(100%,34.901961%,34.901961%);fill-opacity:1;" d="M 64.242188 57.054688 L 68.507812 57.054688 L 68.507812 50.351562 L 64.242188 50.351562 Z M 69.625 59.289062 L 63.125 59.289062 C 62.507812 59.289062 62.007812 58.789062 62.007812 58.171875 L 62.007812 49.234375 C 62.007812 48.617188 62.507812 48.117188 63.125 48.117188 L 69.625 48.117188 C 70.242188 48.117188 70.742188 48.617188 70.742188 49.234375 L 70.742188 58.171875 C 70.742188 58.789062 70.242188 59.289062 69.625 59.289062 Z M 69.625 59.289062 "/>
<path style=" stroke:none;fill-rule:nonzero;fill:rgb(100%,72.156863%,9.803922%);fill-opacity:1;" d="M 39.9375 11.914062 L 52.835938 11.914062 L 52.835938 19.304688 L 39.9375 19.304688 Z M 39.9375 11.914062 "/>
<path style=" stroke:none;fill-rule:nonzero;fill:rgb(0%,0%,0%);fill-opacity:1;" d="M 39.9375 11.914062 L 43.3125 11.914062 L 43.3125 19.304688 L 39.9375 19.304688 Z M 39.9375 11.914062 "/>
<path style=" stroke:none;fill-rule:nonzero;fill:rgb(20%,24.313725%,28.235294%);fill-opacity:1;" d="M 39.9375 26.382812 C 39.320312 26.382812 38.820312 25.882812 38.820312 25.265625 L 38.820312 10.890625 C 38.820312 10.273438 39.320312 9.773438 39.9375 9.773438 C 40.554688 9.773438 41.054688 10.273438 41.054688 10.890625 L 41.054688 25.273438 C 41.054688 25.882812 40.554688 26.382812 39.9375 26.382812 Z M 39.9375 26.382812 "/>
<path style=" stroke:none;fill-rule:nonzero;fill:rgb(0%,44.313725%,80.784314%);fill-opacity:1;" d="M 41.265625 24.125 C 40.53125 22.953125 39.335938 22.953125 38.601562 24.125 L 31.492188 35.46875 C 31.195312 35.9375 30.507812 36.320312 29.953125 36.320312 L 6.195312 36.320312 C 5.640625 36.320312 5.1875 36.773438 5.1875 37.328125 L 5.1875 39.242188 C 5.1875 39.796875 5.640625 40.25 6.195312 40.25 L 31.203125 40.25 C 31.757812 40.25 32.4375 39.859375 32.710938 39.382812 L 38.664062 30.265625 C 39.359375 29.078125 40.507812 29.078125 41.203125 30.265625 L 47.15625 39.382812 C 47.4375 39.859375 48.109375 40.25 48.664062 40.25 L 73.664062 40.25 C 74.21875 40.25 74.671875 39.796875 74.671875 39.242188 L 74.671875 37.328125 C 74.671875 36.773438 74.21875 36.320312 73.664062 36.320312 L 49.914062 36.320312 C 49.359375 36.320312 48.671875 35.9375 48.375 35.46875 Z M 41.265625 24.125 "/>
<path style=" stroke:none;fill-rule:nonzero;fill:rgb(100%,100%,100%);fill-opacity:1;" d="M 34.867188 43.6875 C 34.867188 46.488281 37.136719 48.757812 39.9375 48.757812 C 42.738281 48.757812 45.007812 46.488281 45.007812 43.6875 C 45.007812 40.886719 42.738281 38.617188 39.9375 38.617188 C 37.136719 38.617188 34.867188 40.886719 34.867188 43.6875 Z M 34.867188 43.6875 "/>
<path style=" stroke:none;fill-rule:nonzero;fill:rgb(20%,24.313725%,28.235294%);fill-opacity:1;" d="M 41.875 42.570312 L 41.046875 42.570312 L 41.046875 41.742188 C 41.046875 41.125 40.546875 40.625 39.929688 40.625 C 39.3125 40.625 38.8125 41.125 38.8125 41.742188 L 38.8125 43.6875 C 38.8125 44.304688 39.3125 44.804688 39.929688 44.804688 L 41.875 44.804688 C 42.492188 44.804688 42.992188 44.304688 42.992188 43.6875 C 42.992188 43.070312 42.492188 42.570312 41.875 42.570312 Z M 41.875 42.570312 "/>
<path style=" stroke:none;fill-rule:nonzero;fill:rgb(0%,67.843137%,40.784314%);fill-opacity:1;" d="M 74.976562 69.757812 C 74.976562 70.085938 74.703125 70.359375 74.375 70.359375 L 5.796875 70.359375 C 5.46875 70.359375 5.195312 70.085938 5.195312 69.757812 L 5.195312 67.601562 C 5.195312 67.273438 5.46875 67 5.796875 67 L 74.375 67 C 74.703125 67 74.976562 67.273438 74.976562 67.601562 Z M 74.976562 69.757812 "/>
<path style=" stroke:none;fill-rule:nonzero;fill:rgb(64.313725%,66.27451%,67.843137%);fill-opacity:1;" d="M 31.078125 67 L 49.09375 67 L 49.09375 70.359375 L 31.078125 70.359375 Z M 31.078125 67 "/>
<path style=" stroke:none;fill-rule:nonzero;fill:rgb(12.941176%,52.54902%,28.627451%);fill-opacity:1;" d="M 71.46875 67 C 71.46875 64.1875 69.1875 61.90625 66.375 61.90625 C 63.5625 61.90625 61.28125 64.1875 61.28125 67 Z M 21.828125 67 C 21.828125 64.1875 19.546875 61.90625 16.734375 61.90625 C 13.921875 61.90625 11.640625 64.1875 11.640625 67 Z M 21.828125 67 "/>
</g>
</svg>
