<?xml version="1.0" encoding="UTF-8"?>
<svg xmlns="http://www.w3.org/2000/svg" xmlns:xlink="http://www.w3.org/1999/xlink" width="80px" height="80px" viewBox="0 0 80 80" version="1.1">
<g id="surface1">
<path style=" stroke:none;fill-rule:nonzero;fill:rgb(14.509804%,71.372549%,82.352941%);fill-opacity:1;" d="M 50.796875 34.480469 C 50.796875 40.445312 45.964844 45.277344 40 45.277344 C 34.035156 45.277344 29.203125 40.445312 29.203125 34.480469 C 29.203125 28.519531 34.035156 23.683594 40 23.683594 C 45.964844 23.683594 50.796875 28.519531 50.796875 34.480469 Z M 50.796875 34.480469 "/>
<path style=" stroke:none;fill-rule:nonzero;fill:rgb(14.509804%,71.372549%,82.352941%);fill-opacity:1;" d="M 57.09375 66.234375 C 56.90625 55.921875 49.332031 47.621094 40 47.621094 C 30.667969 47.621094 23.089844 55.921875 22.90625 66.234375 Z M 57.09375 66.234375 "/>
<path style=" stroke:none;fill-rule:nonzero;fill:rgb(14.509804%,71.372549%,82.352941%);fill-opacity:1;" d="M 20.953125 21.875 C 20.953125 26.355469 17.324219 29.988281 12.84375 29.988281 C 8.363281 29.988281 4.730469 26.355469 4.730469 21.875 C 4.730469 17.394531 8.363281 13.765625 12.84375 13.765625 C 17.324219 13.765625 20.953125 17.394531 20.953125 21.875 Z M 20.953125 21.875 "/>
<path style=" stroke:none;fill-rule:nonzero;fill:rgb(14.509804%,71.372549%,82.352941%);fill-opacity:1;" d="M 25.6875 45.734375 C 25.546875 37.984375 19.859375 31.75 12.84375 31.75 C 5.828125 31.75 0.140625 37.984375 0 45.734375 Z M 25.6875 45.734375 "/>
<path style=" stroke:none;fill-rule:nonzero;fill:rgb(14.509804%,71.372549%,82.352941%);fill-opacity:1;" d="M 75.265625 21.875 C 75.265625 26.355469 71.636719 29.988281 67.15625 29.988281 C 62.675781 29.988281 59.042969 26.355469 59.042969 21.875 C 59.042969 17.394531 62.675781 13.765625 67.15625 13.765625 C 71.636719 13.765625 75.265625 17.394531 75.265625 21.875 Z M 75.265625 21.875 "/>
<path style=" stroke:none;fill-rule:nonzero;fill:rgb(14.509804%,71.372549%,82.352941%);fill-opacity:1;" d="M 80 45.734375 C 79.859375 37.984375 74.171875 31.75 67.15625 31.75 C 60.140625 31.75 54.453125 37.984375 54.308594 45.734375 Z M 80 45.734375 "/>
</g>
</svg>
