<?xml version="1.0" encoding="UTF-8"?>
<svg xmlns="http://www.w3.org/2000/svg" xmlns:xlink="http://www.w3.org/1999/xlink" width="70px" height="70px" viewBox="0 0 70 70" version="1.1">
<g id="surface1">
<path style=" stroke:none;fill-rule:nonzero;fill:rgb(45.490196%,85.882353%,78.823529%);fill-opacity:1;" d="M 70 35 C 70 54.328125 54.328125 70 35 70 C 15.671875 70 0 54.328125 0 35 C 0 15.671875 15.671875 0 35 0 C 54.328125 0 70 15.671875 70 35 Z M 70 35 "/>
<path style=" stroke:none;fill-rule:nonzero;fill:rgb(41.568627%,78.431373%,71.764706%);fill-opacity:1;" d="M 40 65 C 20.671875 65 5 49.332031 5 30 C 5 21.609375 7.953125 13.90625 12.878906 7.878906 C 5.019531 14.296875 0 24.0625 0 35 C 0 54.328125 15.671875 70 35 70 C 45.9375 70 55.703125 64.980469 62.121094 57.121094 C 56.09375 62.046875 48.394531 65 40 65 Z M 40 65 "/>
<path style=" stroke:none;fill-rule:nonzero;fill:rgb(17.647059%,70.980392%,62.352941%);fill-opacity:1;" d="M 69.976562 36.25 C 69.988281 35.78125 70 35.40625 70 35 C 70 34.59375 69.988281 34.21875 69.976562 33.75 L 57.914062 33.75 C 57.769531 27.5 56.480469 21.433594 54.191406 16.210938 C 56.484375 14.773438 58.628906 13.078125 60.59375 11.117188 C 60.039062 10.523438 59.46875 9.957031 58.875 9.40625 C 57.136719 11.140625 55.210938 12.691406 53.132812 14.015625 C 52.488281 12.761719 51.777344 11.5625 51.007812 10.425781 C 46.441406 3.703125 40.332031 0 33.792969 0 C 27.257812 0 21.140625 3.703125 16.582031 10.425781 C 16.058594 11.195312 15.570312 11.988281 15.101562 12.8125 C 13.691406 11.78125 12.359375 10.644531 11.125 9.410156 C 10.53125 9.964844 9.960938 10.535156 9.410156 11.128906 C 10.832031 12.554688 12.359375 13.824219 13.964844 14.972656 C 11.320312 20.472656 9.832031 27.03125 9.671875 33.75 L 0.0234375 33.75 C 0.0117188 34.21875 0 34.59375 0 35 C 0 35.40625 0.0117188 35.78125 0.0234375 36.25 L 9.671875 36.25 C 9.832031 42.96875 11.320312 49.527344 13.964844 55.027344 C 12.355469 56.179688 10.832031 57.457031 9.410156 58.882812 C 9.960938 59.476562 10.53125 60.042969 11.125 60.59375 C 12.359375 59.359375 13.691406 58.21875 15.101562 57.191406 C 15.566406 58.011719 16.058594 58.808594 16.582031 59.574219 C 21.140625 66.296875 27.257812 70 33.792969 70 C 40.328125 70 46.441406 66.296875 51.007812 59.574219 C 51.777344 58.4375 52.488281 57.234375 53.132812 55.980469 C 55.210938 57.308594 57.136719 58.855469 58.875 60.589844 C 59.46875 60.035156 60.039062 59.464844 60.589844 58.871094 C 58.628906 56.910156 56.484375 55.226562 54.191406 53.789062 C 56.480469 48.566406 57.769531 42.5 57.914062 36.25 Z M 55.5 33.75 L 44.648438 33.75 C 44.601562 29.21875 44.296875 24.726562 43.757812 20.640625 C 46.664062 19.921875 49.460938 18.835938 52.09375 17.421875 C 54.125 22.171875 55.355469 27.8125 55.5 33.75 Z M 33.792969 67.585938 C 32.300781 67.585938 30.027344 65.214844 28.125 58.5625 C 27.535156 56.496094 27.035156 54.203125 26.625 51.738281 C 29.304688 51.054688 32.109375 50.691406 35 50.691406 C 37.0625 50.691406 39.082031 50.875 41.046875 51.230469 C 40.621094 53.890625 40.089844 56.355469 39.460938 58.5625 C 37.558594 65.214844 35.285156 67.585938 33.792969 67.585938 Z M 35 48.277344 C 32.015625 48.277344 29.085938 48.65625 26.261719 49.351562 C 25.707031 45.292969 25.398438 40.78125 25.351562 36.25 L 42.234375 36.25 C 42.191406 40.625 41.902344 44.929688 41.390625 48.859375 C 39.300781 48.488281 37.164062 48.277344 35 48.277344 Z M 25.351562 33.75 C 25.398438 29.21875 25.707031 24.707031 26.261719 20.648438 C 29.089844 21.339844 32.015625 21.714844 35 21.714844 C 37.164062 21.714844 39.300781 21.503906 41.390625 21.136719 C 41.902344 25.0625 42.191406 29.375 42.234375 33.75 Z M 33.792969 2.414062 C 35.285156 2.414062 37.558594 4.785156 39.460938 11.4375 C 40.089844 13.644531 40.621094 16.109375 41.046875 18.769531 C 39.082031 19.125 37.0625 19.308594 35 19.308594 C 32.109375 19.308594 29.304688 18.945312 26.625 18.261719 C 27.035156 15.796875 27.535156 13.503906 28.125 11.4375 C 30.027344 4.785156 32.300781 2.414062 33.792969 2.414062 Z M 51.054688 15.246094 C 48.667969 16.542969 46.097656 17.558594 43.40625 18.253906 C 42.972656 15.546875 42.425781 13.03125 41.78125 10.773438 C 40.855469 7.535156 39.773438 5.003906 38.5625 3.207031 C 43.617188 4.910156 48.011719 9.265625 51.054688 15.246094 Z M 29.027344 3.207031 C 27.8125 5.003906 26.730469 7.535156 25.808594 10.773438 C 25.214844 12.839844 24.710938 15.125 24.292969 17.570312 C 21.75 16.71875 19.335938 15.570312 17.105469 14.167969 C 20.117188 8.746094 24.277344 4.808594 29.027344 3.207031 Z M 15.992188 16.324219 C 18.480469 17.867188 21.140625 19.082031 23.917969 19.972656 C 23.320312 24.234375 22.984375 28.90625 22.9375 33.75 L 12.085938 33.75 C 12.246094 27.34375 13.667969 21.304688 15.992188 16.324219 Z M 12.085938 36.25 L 22.9375 36.25 C 22.984375 41.09375 23.320312 45.753906 23.917969 50.015625 C 21.140625 50.910156 18.480469 52.144531 15.992188 53.6875 C 13.667969 48.707031 12.246094 42.65625 12.085938 36.25 Z M 17.101562 55.832031 C 19.335938 54.429688 21.75 53.28125 24.292969 52.429688 C 24.707031 54.875 25.214844 57.160156 25.808594 59.226562 C 26.730469 62.464844 27.8125 64.996094 29.027344 66.792969 C 24.277344 65.191406 20.117188 61.253906 17.101562 55.832031 Z M 38.5625 66.792969 C 39.773438 64.996094 40.855469 62.464844 41.78125 59.226562 C 42.425781 56.96875 42.972656 54.453125 43.40625 51.746094 C 46.097656 52.441406 48.667969 53.457031 51.054688 54.753906 C 48.011719 60.734375 43.617188 65.089844 38.5625 66.792969 Z M 52.09375 52.566406 C 49.460938 51.15625 46.664062 50.089844 43.757812 49.371094 C 44.300781 45.285156 44.601562 40.78125 44.648438 36.25 L 55.5 36.25 C 55.355469 42.1875 54.125 47.816406 52.09375 52.566406 Z M 52.09375 52.566406 "/>
<path style=" stroke:none;fill-rule:nonzero;fill:rgb(92.156863%,92.156863%,92.54902%);fill-opacity:1;" d="M 15.191406 63.855469 C 11.238281 61.136719 7.871094 57.625 5.320312 53.550781 C 12.214844 52.59375 24.859375 48.515625 37.5 32.5 L 32.621094 29.574219 C 32.164062 29.300781 32.304688 28.597656 32.835938 28.523438 L 48.148438 26.335938 C 48.472656 26.289062 48.769531 26.527344 48.792969 26.855469 L 49.890625 42.230469 C 49.929688 42.753906 49.296875 43.042969 48.921875 42.671875 L 45 38.75 C 45 38.75 36.210938 56.316406 15.191406 63.855469 Z M 15.191406 63.855469 "/>
<path style=" stroke:none;fill-rule:nonzero;fill:rgb(84.313725%,84.705882%,85.098039%);fill-opacity:1;" d="M 12.570312 51.738281 C 9.765625 52.742188 7.304688 53.277344 5.320312 53.550781 C 7.871094 57.625 11.238281 61.136719 15.191406 63.855469 C 17.921875 62.878906 20.445312 61.726562 22.769531 60.46875 C 18.832031 58.238281 15.367188 55.261719 12.570312 51.738281 Z M 12.570312 51.738281 "/>
</g>
</svg>
